<?xml version="1.0" encoding="utf-8"?>
<!-- Generator: Adobe Illustrator 24.3.0, SVG Export Plug-In . SVG Version: 6.00 Build 0)  -->
<svg version="1.1" id="icAmplify" xmlns="http://www.w3.org/2000/svg" xmlns:xlink="http://www.w3.org/1999/xlink" x="0px" y="0px"
	 viewBox="0 0 1080 1080" style="enable-background:new 0 0 1080 1080;" xml:space="preserve">
<style type="text/css">
	.st0{fill:#A04298;}
</style>
<g>
	<path class="st0" d="M610.5,603.9c34.5-22.9,57.3-62.1,57.3-106.6c0-70.5-57.4-127.9-127.9-127.9c-70.5,0-127.9,57.4-127.9,127.9
		c0,44.5,22.8,83.6,57.3,106.6c-78.1,28.8-134.1,103.8-134.1,191.8h34.1c0-94,76.5-170.5,170.5-170.5c94,0,170.5,76.5,170.5,170.5
		h34.1C744.6,707.7,688.6,632.8,610.5,603.9z M446.2,497.4c0-51.7,42.1-93.8,93.8-93.8c51.7,0,93.8,42.1,93.8,93.8
		s-42.1,93.8-93.8,93.8C488.3,591.1,446.2,549.1,446.2,497.4z"/>
	<path class="st0" d="M781,518.7c34.5-22.9,57.3-62.1,57.3-106.6c0-70.5-57.4-127.9-127.9-127.9c-34.2,0-65.2,13.5-88.1,35.4
		c-8.5,8.1-15.9,17.4-21.9,27.5c10.6,4.3,20.8,9.6,30.1,16c6-9.8,13.8-18.4,22.9-25.4c15.8-12.2,35.5-19.5,57-19.5
		c51.7,0,93.8,42.1,93.8,93.8c0,42.9-29,79.1-68.4,90.2c-8.1,2.3-16.5,3.6-25.3,3.6c-3,0-6-0.2-8.9-0.5c-0.6,12.3-2.5,24.2-5.7,35.6
		c4.9-0.4,9.7-1,14.7-1c6.9,0,13.7,0.5,20.4,1.3C815.3,551.5,881,623.4,881,710.5h34.1C915.1,622.5,859.1,547.5,781,518.7z"/>
	<path class="st0" d="M369.5,540c5,0,9.8,0.6,14.7,1c-3.2-11.4-5.1-23.3-5.7-35.6c-2.9,0.3-5.9,0.5-8.9,0.5
		c-8.8,0-17.3-1.3-25.3-3.6c-39.4-11.1-68.4-47.3-68.4-90.2c0-51.7,42.1-93.8,93.8-93.8c21.4,0,41.2,7.3,57,19.5
		c9.1,7,16.9,15.6,22.9,25.4c9.4-6.4,19.5-11.7,30.1-16c-6-10.2-13.4-19.4-21.9-27.5c-23-21.9-54-35.4-88.1-35.4
		c-70.5,0-127.9,57.4-127.9,127.9c0,44.5,22.8,83.6,57.3,106.6c-78.1,28.8-134.1,103.8-134.1,191.8H199c0-87.1,65.7-159,150.1-169.1
		C355.8,540.5,362.6,540,369.5,540z"/>
</g>
</svg>
