<?xml version="1.0" encoding="utf-8"?>
<!-- Generator: Adobe Illustrator 23.0.0, SVG Export Plug-In . SVG Version: 6.00 Build 0)  -->
<svg version="1.1" id="icEngage" xmlns="http://www.w3.org/2000/svg" xmlns:xlink="http://www.w3.org/1999/xlink" x="0px" y="0px"
	 viewBox="0 0 1080 1080" style="enable-background:new 0 0 1080 1080;" xml:space="preserve">
<style type="text/css">
	.st0{fill:#A04298;}
</style>
<path class="st0" d="M773.1,784.6c0,71.7,0,143.3,0,215c0,18.4-5.6,24-23.8,24c-139.5,0-279,0-418.5,0c-18.2,0-23.9-5.6-23.9-23.9
	c0-144-0.1-287.9,0.2-431.9c0-8.3-1.8-10.6-10.3-10.4c-37.9,0.5-75.8,0.4-113.7,0.2c-15.5-0.1-24.4-14.4-16.8-26.7
	c3.8-6.2,9.6-8.7,17-8.6c20.1,0.2,40.1-0.3,60.2,0.2c7.5,0.2,10.1-1.2,10.5-9.5c2.7-53.8,10.8-106.7,31.9-156.8
	c8.8-20.9,19.7-40.6,35.6-57.1c7.5-7.8,18.3-8.4,25.6-2c7.1,6.3,8.5,17.1,1.6,24.8c-26.4,29.7-38.1,66.1-47.1,103.6
	c-6.9,28.8-10,58.2-11.9,87.7c-0.4,6.8,0.8,9.7,8.5,9.2c11.4-0.8,23-0.9,34.4,0c9.1,0.7,12-2.5,12.6-11.3c1.5-23.3,7.8-45.6,18-66.6
	c26.6-55,71.5-86.3,130.5-97.5c45.8-8.7,91.2-6,134.6,12.6c59.8,25.7,92.6,72.7,104.9,135.4c0.5,2.8,1.1,5.6,1.5,8.4
	c3,18.7,3,18.7,21.6,18.7c46.8,0,93.6,0.1,140.5,0c9.4,0,15.9,3.8,18.9,12.8c2.7,8.1-0.7,14.3-6.7,19.3c-4.2,3.6-9.5,3.2-14.6,3.2
	c-37.3,0-74.5,0.2-111.8-0.2c-7.3-0.1-9.6,1.5-9.5,9.3C773.3,639.4,773.1,712,773.1,784.6z M539.8,880.3
	c69.3,0.1,125.7-56,125.9-125.1c0.2-68.9-56.3-125.4-125.5-125.5c-69.3,0-125.6,55.9-125.8,125.1
	C414.2,823.7,470.7,880.2,539.8,880.3z"/>
<path class="st0" d="M539.9,306.8c-69.1,0-125.5-56.5-125.4-125.4c0.1-69.1,56.4-125.1,125.7-125.1c69.1,0,125.6,56.5,125.5,125.4
	C665.5,250.7,609.1,306.9,539.9,306.8z"/>
<path class="st0" d="M539.9,666.7c9.7,16,13.2,32.3,15.3,48.8c2.7,21.4,2.3,21.4-19.2,21.4c-14.4,0-14.1,0-12.1-14.3
	C526.4,703.8,529.5,685.2,539.9,666.7z"/>
<path class="st0" d="M540.2,843.2c-9.8-16-13.2-32.2-15.3-48.7c-2.7-21.4-2.3-21.4,19.2-21.4c14.3,0,14,0,12.1,14.3
	C553.7,806.2,550.5,824.8,540.2,843.2z"/>
<path class="st0" d="M452.2,736.9c6.4-26.5,20.6-45.6,43.9-59.5c-5.4,18.7-7.7,36.8-9.3,55c-0.3,3.9-1.9,4.6-5.2,4.5
	C472.2,736.8,462.7,736.9,452.2,736.9z"/>
<path class="st0" d="M627.9,736.9c-10.5,0-20.3-0.1-30.2,0.1c-3.3,0.1-4.2-1.2-4.5-4.3c-1.8-18.2-3.7-36.5-9.5-55.4
	C607.4,691.5,621.5,710.8,627.9,736.9z"/>
<path class="st0" d="M627.5,773.1c-6.3,26.6-20.7,46.3-43.4,59c5.1-18.6,7.6-36.9,9.1-55.2c0.3-3.8,2.3-3.8,5-3.7
	C607.8,773.1,617.3,773.1,627.5,773.1z"/>
<path class="st0" d="M496.4,832.7c-23.7-14.4-38.1-33.5-44-59.6c10.1,0,19.7,0.2,29.2-0.1c4.4-0.1,5,1.7,5.4,5.5
	C488.6,796.1,490.7,813.8,496.4,832.7z"/>
</svg>
