<?xml version="1.0" encoding="utf-8"?>
<!-- Generator: Adobe Illustrator 23.0.0, SVG Export Plug-In . SVG Version: 6.00 Build 0)  -->
<svg version="1.1" id="icInspire" xmlns="http://www.w3.org/2000/svg" xmlns:xlink="http://www.w3.org/1999/xlink" x="0px" y="0px"
	 viewBox="0 0 1080 1080" style="enable-background:new 0 0 1080 1080;" xml:space="preserve">
<style type="text/css">
	.st0{fill:#A04298;}
</style>
<path class="st0" d="M540.7,115.8c134.9,0,269.9,0.7,404.8-0.4c43.1-0.3,78.5,32,78.2,78.6c-1.2,192.8-0.5,385.6-0.5,578.4
	c0,43.7-31.3,74.8-75.3,74.8c-271.9,0-543.8-0.1-815.7,0.1c-41.6,0-75.9-31.8-75.7-76c0.8-191.6,1.2-383.2-0.2-574.8
	c-0.4-50.5,36.8-81.8,82.1-81.3C272.5,116.7,406.6,115.8,540.7,115.8z M539.7,142c-132.9,0-265.8,0-398.8,0
	c-5.7,0-11.4,0.6-17.1,0.6c-10-0.1-17.8,4.4-25.1,10.6c-13.1,11-15.8,25.5-15.8,41.6c0.2,139,0.1,278.1,0.1,417.1
	c0,53,0.3,106-0.1,159c-0.1,17.6,5.6,31.6,19.8,42.2c10.5,7.9,22.6,7.9,34.9,7.9c268.3,0,536.6,0,804.9,0c4.5,0,9-0.1,13.4-0.5
	c21.5-1.8,37.8-17.1,40.7-38.2c0.6-4.4,1-8.9,1-13.4c0-191.2,0-382.4,0-573.7c0-13.1-1.5-25.7-10.6-36.5c-11.3-13.4-25.6-17-42.3-17
	C809.7,142.1,674.7,142,539.7,142z"/>
<path class="st0" d="M540,964.7c-87.2,0-174.5,0.1-261.7,0c-27.3,0-46.6-19.2-45.3-44.5c1.1-21.5,17.1-37.8,39.8-40.4
	c2.8-0.3,5.7-0.2,8.6-0.2c172.4,0,344.8,0,517.2,0c23.2,0,38.8,9.5,45.6,27.4c10.9,28.6-9.5,57.5-41.3,57.6
	c-50.1,0.3-100.3,0.1-150.4,0.1C615,964.7,577.5,964.7,540,964.7z M540.1,906c-85.9,0-171.9,0-257.8,0c-2.9,0-5.7-0.3-8.5,0.1
	c-8.8,1.2-13.8,6.1-14,15.3c-0.3,8.9,3.5,14.9,12.6,16.4c4.4,0.7,8.9,0.6,13.4,0.6c169.4,0,338.9,0,508.3,0c4.5,0,9,0.1,13.4-0.6
	c7.7-1.2,12.2-5.6,12.7-13.7c0.8-12.1-5.1-18-18.5-18C714.5,906,627.3,906,540.1,906z"/>
<path class="st0" d="M539.1,729.9c-116.6,0-233.2-0.2-349.8,0.2c-11.7,0-15.3-3.1-15.3-15c0.4-155.7,0.4-311.5,0-467.2
	c0-12.1,3.9-14.9,15.4-14.9c233.6,0.3,467.2,0.3,700.8,0c12.2,0,15.9,3.2,15.9,15.7c-0.4,155.3-0.4,310.7,0,466
	c0,12.7-3.9,15.6-16,15.5C773.1,729.7,656.1,729.9,539.1,729.9z M540,259.4c-109.3,0-218.5,0.1-327.8-0.2c-9.6,0-12,2.5-12,12
	c0.3,140.3,0.3,280.5,0,420.8c0,9.4,2.5,11.2,11.4,11.2c218.9-0.3,437.9-0.3,656.8,0c9,0,11.4-2,11.4-11.2
	c-0.3-140.3-0.3-280.5,0-420.8c0-9.6-2.5-12-12-12C758.5,259.5,649.3,259.4,540,259.4z"/>
<path class="st0" d="M409.1,481.4c0-59.5-0.1-119,0.1-178.4c0-5.3-2.8-12.2,4-15.4c6.2-2.9,10.8,2.2,15.2,5.5
	c76.1,57,152.2,114.1,228.1,171.2c22.6,17,22.5,17.2-0.2,34.2c-75.5,56.6-150.9,113.3-226.5,169.7c-4.9,3.7-9.6,10.7-16.9,7
	c-6.9-3.5-3.7-11-3.7-16.7C409.1,599.5,409.1,540.4,409.1,481.4z M436.6,630.8c67.4-50.6,133.2-99.9,199.3-149.5
	c-66.5-49.8-132.3-99.1-199.3-149.3C436.6,432.3,436.6,530.6,436.6,630.8z"/>
</svg>
