<?xml version="1.0" encoding="utf-8"?>
<!-- Generator: Adobe Illustrator 23.0.0, SVG Export Plug-In . SVG Version: 6.00 Build 0)  -->
<svg version="1.1" id="icLearn" xmlns="http://www.w3.org/2000/svg" xmlns:xlink="http://www.w3.org/1999/xlink" x="0px" y="0px"
	 viewBox="0 0 1080 1080" style="enable-background:new 0 0 1080 1080;" xml:space="preserve">
<style type="text/css">
	.st0{fill:#A04298;}
</style>
<path class="st0" d="M147.5,819.7c-3.8-0.6-5.1-3.6-6.7-5.8c-25-37.4-45.5-77-59.7-119.8c-2.4-7.2-0.9-9.1,6.2-11
	c62-17.4,124-35.1,185.8-53.2c7.6-2.2,10-0.9,12.7,6.3c6.4,17.3,14.1,34,24.8,49.1c3.8,5.4,2.7,8.6-2.3,12.4
	c-52.5,39.6-104.8,79.4-157.2,119.2C149.8,817.9,148.5,818.9,147.5,819.7z"/>
<path class="st0" d="M477.6,811.9c-8.9,47.4-17.8,94.7-26.8,142.1c-3.2,16.9-6.7,33.7-9.6,50.7c-1.2,6.7-3,8.4-10.7,6.7
	c-43.1-9.9-83.8-26.1-122.8-46.7c-6.5-3.4-7.6-6.7-3.4-13.5c34-54.3,67.5-108.9,101.1-163.5c4-6.4,7.4-8.1,15-4
	c15.7,8.7,32.7,14.9,50.3,19C476,803.9,479.4,805.9,477.6,811.9z"/>
<path class="st0" d="M56.3,546.6c0-10.1,0.1-20.2,0-30.2c-0.1-6.5,2.8-8.9,9.3-8.3c55.1,5.2,110.2,10.2,165.3,15.3
	c8.8,0.8,17.6,2,26.3,1.9c8-0.1,11.4,2.2,10.8,10.7c-1.2,17.3,0.5,34.6,4.5,51.3c2.7,11.3-3.1,13.5-11.3,15.8
	c-31.8,9-63.6,18.2-95.4,27.2c-28.6,8.2-57.3,15.9-85.7,24.6c-8.2,2.5-10,1.2-12-7.3C60.4,614.3,56.7,580.7,56.3,546.6z"/>
<path class="st0" d="M541.6,1023.2c-22.7,1-43.5-0.9-64.3-3.7c-6.1-0.8-8.5-1.9-7.1-9.1c7-35.3,13.2-70.8,19.8-106.2
	c5.2-27.6,11-55,15.5-82.7c1.4-8.4,3.8-11.4,12.5-10.5c17.5,1.8,35.2,1.8,52.7-0.9c6.7-1,9.5,0.7,10.9,7.9
	c11.5,63,23.4,126,35.6,188.9c1.6,8.2,0.3,11.4-8.4,12.2C585.9,1021,563.1,1024.9,541.6,1023.2z"/>
<path class="st0" d="M855,175.2c-1.4,1.6-3,3.4-4.7,5.3c-42.8,46.8-85.6,93.4-128.2,140.4c-6.6,7.2-11.3,9-19.4,1.8
	c-11.2-10.1-24.2-18.1-38.3-23.8c-10.1-4-11.3-9.3-7.5-18.9c20.2-50.9,39.8-102.1,59.6-153.1c3.2-8.2,6.9-16.2,9.4-24.6
	c2.1-7.2,6-6.9,11.3-4.5c41,18.6,78.9,42.2,113.4,71.2C852.5,170.4,854.8,171.8,855,175.2z"/>
<path class="st0" d="M273.3,943.3c-2.5-1.6-5.1-2.9-7.5-4.6c-34.9-24.4-66.1-52.9-94.4-84.7c-6.4-7.2-6.6-11.1,1.9-17.4
	c51.1-38.2,101.7-76.9,152.2-115.8c6-4.6,9.1-3.2,13.4,1.4c12.5,13.6,25.6,26.6,41.1,36.9c5.5,3.7,5.1,7,1.9,12.3
	c-34.4,55.1-68.5,110.3-102.8,165.5C277.6,939.2,276.8,942.4,273.3,943.3z"/>
<path class="st0" d="M920.2,839.4c-2.5,3.2-4,5.2-5.5,7.1c-28.1,34.2-60.3,64-96.4,89.6c-5.8,4.1-8.3,4.6-12.5-2.2
	c-33.8-55.3-67.9-110.5-102.3-165.4c-4-6.5-2.5-9.4,2.5-13.3c14.2-11.1,28-22.8,39.2-37c3.8-4.9,7.2-5.5,12.5-1.5
	c51.8,39.2,103.7,78.2,155.5,117.3C915.5,835.5,917.7,837.4,920.2,839.4z"/>
<path class="st0" d="M60.2,474c5.9-39.7,15.1-75.3,28.8-109.8c3.8-9.6,5-23.8,13.3-27.2c8.4-3.4,18.7,6.7,27.9,11.3
	c50.6,25.1,101.1,50.4,151.8,75.4c7.4,3.6,9.7,7.2,5.7,15.4c-7.6,16-11.9,33.1-15.1,50.5c-1.1,6.2-3.5,7.9-10.2,7.2
	c-63.4-6-126.9-11.5-190.4-17.1C66.5,479.3,59.3,480.5,60.2,474z"/>
<path class="st0" d="M208.4,191.1c0.4,0.6,1.2,2.6,2.6,4.1c44.2,48.3,88.4,96.5,132.7,144.6c4.3,4.6,4.9,8.2,0.1,12.7
	c-13.7,13.2-25,28.2-34.9,44.4c-3.3,5.4-6.3,4.9-11.3,2.5c-57.9-29-116-57.8-174-86.4c-6.9-3.4-8-6.5-4-13.5
	c21.6-37.3,48-70.7,77.7-101.7C199.9,195.1,202.1,191.6,208.4,191.1z"/>
<path class="st0" d="M527.4,161.3c0,31.5-0.2,63,0.1,94.5c0.1,9.2-1.6,13.7-12.3,13.6c-16.4-0.1-32.4,4.1-48.1,8.6
	c-7.3,2.1-10.6,0.2-13.2-6.5c-23.2-60-46.4-120.1-69.9-180c-2.6-6.6-1.5-9.8,5.6-12c41.9-12.9,84.5-20.9,128.3-23.2
	c8.2-0.4,9.7,3.1,9.6,10.4C527.2,98.3,527.4,129.8,527.4,161.3z"/>
<path class="st0" d="M655.5,1010c-9.1,1.6-8.3-3.7-9.1-7.6c-7-36.2-14-72.4-20.8-108.6c-5.2-27.6-10-55.2-15.4-82.7
	c-1-4.8-1.8-7.5,3.9-9.4c19-6.3,38.1-12.7,55.4-23.1c4.9-3,6.6,0.7,8.6,4c34.5,55.9,69,111.8,103.7,167.5c3.1,5,2.1,7.8-2.1,10.2
	c-39.5,22.3-81.3,39-125.4,49.8C654.1,1010.2,653.6,1010.3,655.5,1010z"/>
<path class="st0" d="M779.9,405.5c-4.4,0.2-5.4-3.2-6.8-5.5c-9.3-16-20.8-30.5-33.1-44.2c-4.2-4.6-4.7-7.3-0.1-12.3
	c43.9-47.3,87.5-94.9,131-142.6c5.4-5.9,8.5-6.8,14.6-0.3c29.5,31.2,55.5,64.9,76.8,102.3c3.9,6.8,3.6,10.3-3.3,13.7
	c-58.5,28.8-116.9,57.7-175.3,86.6C782.3,403.9,780.9,404.9,779.9,405.5z"/>
<path class="st0" d="M830.6,498.4c-20.9,1.3-20.3,1.2-24.9-18.3c-3.2-13.4-7.8-26.5-12.6-39.4c-2.3-6.1-1-9.1,4.4-11.8
	c58.4-29.1,116.7-58.2,174.9-87.4c6-3,8.8-1.4,11.4,4.5c17.5,40.6,29.8,82.6,35.6,126.5c0.8,6-0.4,8.1-6.6,8.6
	c-45.5,4.1-90.9,8.6-136.3,12.9C860.6,495.5,844.8,497.1,830.6,498.4z"/>
<path class="st0" d="M557,162.5c0-31.5,0.3-63-0.2-94.5c-0.1-8.8,2.1-11.3,11.4-10.9c42.2,2,83.1,10.5,123.3,22.9
	c8.4,2.6,9.6,5.6,6.2,14.3c-23.2,58.7-45.6,117.7-68,176.8c-2.9,7.6-5.6,10.4-14.5,7.5c-15.9-5.1-32.5-8.6-49.3-9.3
	c-7.3-0.3-9.1-2.9-9-9.8C557.2,227.2,557,194.8,557,162.5z"/>
<path class="st0" d="M1023.6,553.4c0.4,30.8-4.7,61-10.3,91.1c-1.6,8.4-3.7,12.6-14.8,9.3c-61.4-18.4-123-35.9-184.7-53.1
	c-6.9-1.9-8.1-4.9-6.6-10.6c4.5-16.4,5-33.2,4.2-50c-0.4-8.5,2.8-10.7,10.4-11.3c48.5-4.3,96.9-8.9,145.3-13.4
	c15.4-1.4,31-2.1,46.3-4.4c9.4-1.5,10.6,2.1,10.3,9.8C1023.2,531.5,1023.6,542.4,1023.6,553.4z"/>
<path class="st0" d="M369.5,327.7c-1.3-2.3-2.2-4.9-3.9-6.7c-44-48.3-88.1-96.5-132.3-144.7c-4.3-4.6-4.1-7.7,1.1-11.9
	c33.1-26.6,69.2-48.2,107.5-66.4c7.9-3.8,12.6-3.7,16.4,6.4c22.3,59,45.4,117.7,68.4,176.5c2.1,5.3,4.1,10.2-2.9,13.4
	c-17.3,7.7-33,17.9-48.2,29.1C374.3,324.4,373,325.3,369.5,327.7z"/>
<path class="st0" d="M800.7,627.1c17.1,4.9,33.1,9.6,49.2,14.2c45,12.9,90.1,25.9,135.1,38.6c17.4,4.9,17.6,4.7,11.4,22.2
	c-13.2,37.2-31.1,72.1-52.6,105.3c-4.4,6.7-7.4,8-14.4,2.6c-50.6-38.6-101.5-76.7-152.5-114.7c-6.7-5-8.2-8.8-3.2-16.4
	c8.7-13.3,15.4-27.7,20.9-42.7C795.8,632.6,796.1,627.5,800.7,627.1z"/>
</svg>
