<?xml version="1.0" encoding="utf-8"?>
<!-- Generator: Adobe Illustrator 23.0.0, SVG Export Plug-In . SVG Version: 6.00 Build 0)  -->
<svg version="1.1" id="icLogo" xmlns="http://www.w3.org/2000/svg" xmlns:xlink="http://www.w3.org/1999/xlink" x="0px" y="0px"
	 viewBox="0 0 1000 400" style="enable-background:new 0 0 1000 400;" xml:space="preserve">
<g>
	<g>
		<path style="fill:#FFFFFF" d="M53.1,123.6h46.1V81.2H116v108.3H99.3v-50.5H53.1v50.5H36.4V81.2h16.7V123.6z"/>
		<path style="fill:#FFFFFF" d="M157.4,81.2v65.3c0,5.9,0.2,13,3.3,18.7c3.3,5.9,10.1,11,20.1,11c8.4,0,16.1-3.4,20.1-11
			c3.1-5.9,3.2-12.5,3.2-18.7V81.2h16.7v69.6c0,8.7-1.9,19-10.1,28.2c-5.7,6.3-15.2,12.7-30,12.7s-24.3-6.3-30-12.7
			c-8.2-9.1-10.1-19.5-10.1-28.2V81.2H157.4z"/>
		<path style="fill:#FFFFFF" d="M242.6,189.5l22.7-116.4l37.6,83.9L341,73.2l20.4,116.4h-17l-10.8-65.3L302,194.5l-31.1-70.4l-11.3,65.5
			H242.6z"/>
		<path style="fill:#FFFFFF" d="M447.1,163.2h-46l-11.9,26.3h-18L425.2,75l51.4,114.5h-18L447.1,163.2z M440.6,147.8l-16.1-36.5l-16.7,36.5
			H440.6z"/>
		<path style="fill:#FFFFFF" d="M489.5,189.5V74.1l78.3,82V81.2h16.7V196l-78.3-82v75.5H489.5z"/>
		<path style="fill:#FFFFFF" d="M626,81.2v108.3h-16.7V81.2H626z"/>
		<path style="fill:#FFFFFF" d="M681.4,96.7v92.9h-16.7V96.7h-24.8V81.2h66.2v15.5H681.4z"/>
		<path style="fill:#FFFFFF" d="M743.2,142.8l-35.4-61.6h18.6l25.2,43.6l25.2-43.6h18.6l-35.4,61.6v46.7h-16.7V142.8z"/>
		<path style="fill:#FFFFFF" d="M46.5,235.7v55.4h18.8v9.2H36.5v-64.7H46.5z"/>
		<path style="fill:#FFFFFF" d="M112.5,284.7H85l-7.1,15.7H67.2L99.4,232l30.7,68.4h-10.7L112.5,284.7z M108.6,275.4L99,253.6l-10,21.8H108.6
			z"/>
		<path style="fill:#FFFFFF" d="M144.8,235.7c5.2,0,10.8-0.2,16,3.4c3.9,2.7,7.3,7.2,7.3,14.6c0,3.6-0.8,8-5.7,11.8
			c8.1,2.5,11.3,9.6,11.3,15.6c0,3.8-1.2,10.3-6.5,14.7c-5.6,4.6-12.7,4.5-17.3,4.5H135v-64.7H144.8z M145,263.5h3
			c2.2,0,10.5,0,10.5-9.5c0-8.9-7.9-9.1-10.2-9.1H145V263.5z M145,291.1h5.9c10.6,0,12.7-5.6,12.7-9.8c0-4.4-2.4-9.7-12.6-9.7H145
			V291.1z"/>
		<path style="fill:#FFFFFF" d="M239.3,245h-22.4v15.5h21.6v9.2h-21.6v30.7h-10v-64.7h32.3V245z"/>
		<path style="fill:#FFFFFF" d="M314.3,268.1c0,18.8-14.2,33.5-33.6,33.5c-19.4,0-33.6-14.7-33.6-33.5c0-19,14.3-33.7,33.6-33.7
			S314.3,249.1,314.3,268.1z M304,268.1c0-14.3-9.6-24.5-23.3-24.5c-13.7,0-23.3,10.2-23.3,24.5c0,14.2,9.6,24.3,23.3,24.3
			C294.4,292.4,304,282.4,304,268.1z"/>
		<path style="fill:#FFFFFF" d="M336.1,235.7v39c0,3.5,0.1,7.8,1.9,11.2c1.9,3.5,6,6.6,12,6.6c5,0,9.6-2,12-6.6c1.8-3.5,1.9-7.5,1.9-11.2v-39
			h10v41.6c0,5.2-1.1,11.4-6,16.8c-3.4,3.8-9.1,7.6-17.9,7.6s-14.5-3.8-17.9-7.6c-4.9-5.5-6-11.6-6-16.8v-41.6H336.1z"/>
		<path style="fill:#FFFFFF" d="M388.8,300.4v-68.9l46.7,49v-44.7h10v68.5l-46.7-49v45.1H388.8z"/>
		<path style="fill:#FFFFFF" d="M473.8,235.7c9.3,0,16.7,0.8,24,6.3c10.6,7.9,12.5,19.3,12.5,26.1c0,10.7-4.5,20-13,26
			c-7.5,5.3-14.6,6.2-23.6,6.2h-13.4v-64.7H473.8z M470.2,291.1h4.2c5.1,0,11.5-0.3,17.2-4.6c5.4-4.1,8.4-10.8,8.4-18.4
			c0-7.3-2.9-14.6-8.3-18.7c-5.6-4.2-12.4-4.5-17.3-4.5h-4.2V291.1z"/>
		<path style="fill:#FFFFFF" d="M558.5,284.7h-27.4l-7.1,15.7h-10.7l32.1-68.4l30.7,68.4h-10.7L558.5,284.7z M554.7,275.4l-9.6-21.8l-10,21.8
			H554.7z"/>
		<path style="fill:#FFFFFF" d="M602.1,245v55.4h-10V245h-14.8v-9.2h39.5v9.2H602.1z"/>
		<path style="fill:#FFFFFF" d="M635.2,235.7v64.7h-10v-64.7H635.2z"/>
		<path style="fill:#FFFFFF" d="M714.3,268.1c0,18.8-14.2,33.5-33.6,33.5c-19.4,0-33.6-14.7-33.6-33.5c0-19,14.3-33.7,33.6-33.7
			S714.3,249.1,714.3,268.1z M703.9,268.1c0-14.3-9.6-24.5-23.3-24.5c-13.7,0-23.3,10.2-23.3,24.5c0,14.2,9.6,24.3,23.3,24.3
			C694.3,292.4,703.9,282.4,703.9,268.1z"/>
		<path style="fill:#FFFFFF" d="M726.1,300.4v-68.9l46.7,49v-44.7h10v68.5l-46.7-49v45.1H726.1z"/>
	</g>
	<path style="fill:#FFFFFF" d="M933.8,210.8c3.5-7.3,9-13.2,13.1-20.1c2.1-3.4,4.1-6.9,6.1-10.4c1.4-2.5,0.6-3.5-2.2-3.5
		c-5.6,0.1-7.7,1.5-9.2,7.2c-1.4,5.4-3.1,10.5-6.6,15c-0.6,0.8-1,2.1-2.3,1.6c-0.9-0.4-1-1.4-1-2.3c-0.1-1.8-0.5-3.6,0.5-5.3
		c1.7-3,2.3-6.4,3.3-9.7c2.9-9.4,6.6-12.5,16.5-12.3c4,0.1,5.1-1.5,5.7-4.9c4.3-21.8-1.2-41-15.5-57.7c-2.3-2.6-4.8-4.8-8.9-3.4
		c-2,0.7-4.6,0.9-6.6-0.1c-4.3-2-8-0.7-12,0.9c-3.9,1.6-7.9,3.2-12.5,2.4c-3.1-0.6-7.8,6.1-6.7,9c0.5,1.3,1.7,1,2.6,1.2
		c3.6,0.5,7,1.7,9.5,4.5c1.1,1.2,2.5,1.4,4,1.6c2.5,0.3,4.9,1.3,5.2,4.1c0.3,3.1-2.4,3.8-4.7,4.5c-4.2,1.2-8.4,1.8-12.7,0.1
		c-4.4-1.7-8.3,0.8-8.2,5.5c0.1,6.1,2.5,11.6,5.7,16.7c1.1,1.8,3.1,2.4,5.1,2.1c9.9-1.5,12.8,4.3,13,13.6c0.1,5.5-0.4,11.1,1.4,16.4
		c0.4,1.2,0.3,3,2.1,3c1.6,0.1,2.1-1.5,2.6-2.7c3.3-7.1,5.3-14.8,7.7-22.2c0.6-1.7,1.2-3.3,1.9-5c0.3-0.7,1-1.6,0.7-2
		c-2.3-3.9-2.6-7.4,0.7-11.1c0.6-0.7-1.1-1.9-2.1-2.6c-3-2.2-6-4.4-8.9-6.7c-1.3-1-2.6-2.3-1.9-4.2c0.7-1.9,2.3-2.5,4.2-2.7
		c10.5-0.9,19.2,1.7,24,12.1c1.1,2.3,1.9,1,2.7-0.2c0.5-0.7,0.9-1.7,2-1.5c1.3,0.3,1.3,1.5,1.3,2.5c0.2,4.3,0.5,8.6-0.7,12.9
		c-0.4,1.6-1.3,2.7-2.9,3.1c-1.8,0.5-2.9-0.9-3.5-2.2c-1.5-3.6-2.8-7.2-4-10.9c-1-2.9-2.3-5.5-5-7.2c-0.7-0.4-1.6-1.1-2.4-0.2
		c-0.5,0.7,0,1.4,0.5,1.9c3,2.9,4.9,6,1.3,9.8c-0.6,0.7-0.7,1.8-0.2,2.5c2.4,3.5,0.4,6.4-0.8,9.6c-2.7,7.2-5,14.7-7.6,21.9
		c-1.2,3.4-2.8,6.6-5.4,9.2c-3.4,3.2-7.2,3-9.9-0.8c-2.7-3.7-3.6-8.1-3.9-12.6c-0.3-4.9,0.6-9.8-0.6-14.7c-0.4-1.7-0.9-3.3-3-3.3
		c-5.3,0.1-10.5,0.3-13.8-5.1c-2.8-4.5-4.8-9.2-5.8-14.4c-1.8-9.7-0.6-12.2,8.2-17.1c0.6-0.4,1.5-0.6,1.3-1.5
		c-0.3-1.3-1.3-0.8-2.2-0.6c-3.7,0.7-5-1.3-4.8-4.5c0.3-4.7,1.5-9.2,4.1-13.1c2.2-3.4,5.2-5.6,9.7-5.1c3.6,0.5,7-0.5,10.4-2
		c4.7-2,9.5-3.9,14.6-1.3c0.7,0.4,1.8,0.9,2.2-0.4c0.3-1.1-0.7-1.5-1.5-2c-6-3.4-12.1-6.5-18.9-8c-16-3.7-31.6-2.5-46.5,4.9
		c-15.5,7.7-26,19.7-32.6,35.5c-0.9,2.2-1.5,4.4-2.9,6.5c-1,1.5-0.8,3.5,0.7,4.9c1.3,1.2,2.5,2.1,3.5-0.7c2.2-6.2,5.8-8.2,12.4-7.2
		c2.9,0.4,4.8,0,6.4-3.1c5.6-10.5,12.3-13.5,24.2-11.4c0.9,0.2,1.8,0.5,2.3-0.5c0.5-0.9,0-1.7-0.6-2.4c-0.3-0.4-0.6-0.7-0.9-1
		c-5.6-6.5-5.6-6.8,0.5-12.7c-3-1.1-4.9,0.5-6.7,2.3c-1.5,1.4-3.2,2.5-5.1,0.9c-1.2-1-3.2-1.6-3.1-3.5c0.1-1.8,2-2,3.2-2.7
		c5.1-2.8,10.2-5,16-1.9c4.9,2.6,5.7,5.7,1.8,9.4c-2.9,2.6-2.4,4.4-0.3,6.9c1.8,2.3,4.2,4.7,1.9,7.9c-2.2,3.2-8.3,5-11.5,3.6
		c-4.9-2.1-12-0.3-14.7,4.2c-2.1,3.6-4.4,7.2-4.8,11.4c-0.2,1.9-1,3.2-2.7,3.6c-1.9,0.5-2.8-1-3.5-2.2c-1.1-1.9-2.3-3-4.6-2.8
		c-1.8,0.2-4-0.1-4.3,2.2c-0.4,2.7,2.1,1.6,3.5,2c2.3,0.7,4,2.1,3.2,4.5c-1.2,3.8,1.3,4.6,3.7,4.3c8.1-1.2,13.5,3.4,19,8.2
		c2.6,2.3,5.4,3.9,9,4.6c8.7,1.8,10.9,5.5,7.9,13.7c-1.6,4.3-3.2,8.7-5.8,12.9c-3.9,6.3-7.8,14.2-1.8,22c0.8,1.1,0.9,2.2,0,3.3
		c-1,1.3-2.4,1.6-4,1.4c-4.7-0.7-7.5-4.3-10-7.7c-3.7-5.2-6.5-10.9-8.1-17.2c-1.4-5.6-4.8-10.2-8.7-14c-5.1-5-5.4-10.3-2.7-16.2
		c1.5-3.3,1.2-4.9-2.6-6c-3.8-1-6.7-3.7-9.8-6.1c-1.1-0.9-1.9-2.9-3.5-2.2c-1.8,0.8-0.8,2.9-0.9,4.4c-0.5,13.5,3.8,25.6,11,36.7
		c4.5,6.9,8.8,14,14,20.5c0.6,0.7,1.1,1.4,1,2.4c-1.8,0.1-4-0.8-4.7,2c-14.1-17.8-27.6-36.2-27.8-60.2c-0.3-33.3,23.8-64,57.3-71.9
		c29.5-6.9,63.1,7.9,78.1,33.4c14.4,24.4,14.6,49.2,0.5,73.7c-4.5,7.8-10,15-15.1,22.5c-0.5,0.7-1.3,1.2-2,1.7
		C937.1,211.4,935.6,210.9,933.8,210.8z M878.5,173.6c0.5-2.6-1.1-3.5-3-3.7c-5.4-0.7-9.6-3.5-13.6-7.1c-2.2-2-4.7-3.6-7.2-5.2
		c-2.9-1.8-4.4-0.9-5.5,1.8c-1,2.5-1.7,5.2-2.7,7.7c-0.9,2.1-0.5,3.4,1.1,5c5.7,5.7,10,12.4,12.1,20.4c0.8,3.2,2,6.1,4.2,8.7
		c0.7,0.8,0.7,2.6,2.3,2.2c1.3-0.3,0.7-1.8,1-2.7c1.7-4.7,2.2-10.5,5.4-13.8C876.5,182.7,876.9,178,878.5,173.6z"/>
	<path style="fill:#FFFFFF" d="M847,213.8c0.7-2.8,2.9-1.8,4.7-2c2.8,5.3,7.1,9.9,8.8,15.8c-0.2,5.6,0.5,6.4,5.6,6.4c3.6,0,7.1,0,10.7,0
		c15.6,0.3,31.2-0.6,46.7,0.5c1.3,0.7,2.3,1.7,2.9,3c1.3,4.1-0.3,7.2-3.2,10.1c-1.5,1.5-3.9,0.1-5,2.1c-17.9,0.1-35.9,0.1-53.8,0.2
		c-1.1-0.4-1.6,0-1.5,1.1c-0.4,3.9,2.4,3.4,4.7,3.4c15.7,0,31.3,0,47,0c1,0,2.1,0,3.1,0c6,0.1,10.1,3.6,10.1,8.4
		c0,5-3.9,8.2-10.1,8.3c-14.6,0-29.2,0-43.8,0c-1.2,0-2.4,0-3.6,0.2c-1.1,0.2-1.9,0.9-1.9,2.1c-0.1,1.3,0.8,1.9,1.8,2.2
		c1.1,0.3,2.4,0.2,3.5,0.2c12.2,0,24.5,0,36.7,0c2.4,0,5-0.3,6.3,2.3c1.5,2.8-0.8,4.4-2.3,6.2c-0.4,0.5-0.8,0.9-1.2,1.4
		c-11,12.7-12.2,13.3-28.7,11.8c-5.7-0.5-7.9-5.9-11.5-9.2c-0.7-0.6-0.2-1.6,0.7-1.6c2.6,0.1,5.5-0.9,7.4,1.8c1.9,2.6,4.5,3.2,7.5,3
		c2.1-0.2,4.2-0.3,6.3,0c6.2,0.9,8.7-3.9,11.6-7.6c1.5-1.9-0.9-1.7-2.1-1.7c-10.1,0-20.3,0-30.4,0c-1,0-2.1,0.1-3.1,0
		c-4.8-0.3-8.8-4.1-8.8-8.4c-0.1-4.4,3.7-8.1,8.8-8.4c3.4-0.2,6.9-0.1,10.3-0.1c11.6,0,23.3,0,34.9,0c1.2,0,2.4,0,3.6-0.2
		c1.1-0.2,2-0.8,2-2.1c0-1.5-0.9-2.1-2.3-2.2c-1.2-0.1-2.4-0.1-3.6-0.1c-16.1,0-32.2,0-48.3,0c-2.3,0-4.5,0.1-6.5-1.3
		c-3-2.1-5-4.9-4.1-8.7c0.8-3.6,3.3-6,7-6.6c1.6-0.3,3.3-0.3,4.9-0.3c15.8,0,31.6,0,47.4,0c1.2,0,2.4,0,3.6-0.1
		c1.1-0.2,1.9-0.7,1.9-2c0-1.2-0.7-2.1-1.8-2.3c-1.3-0.2-2.7-0.2-4-0.2c-17.6,0-35.2-0.1-52.8,0.1c-3.8,0-5.6-1.1-6.5-4.9
		C854.9,226.8,850.9,220.3,847,213.8z"/>
	<path style="fill:#FFFFFF" d="M933.8,210.8c1.7,0.2,3.3,0.6,4.2,2.2c-2.7,5.1-5.4,10.1-8.1,15.1c-0.7,1.2-0.5,3.8-3.2,2.1
		c-1.6-1-3.5-1.7-2.1-4.3C927.5,220.7,930,215.3,933.8,210.8z"/>
	<path style="fill:#FFFFFF" d="M923.5,234.7c-15.6-1.2-31.1-0.3-46.7-0.5c-3.6-0.1-7.1,0-10.7,0c-5.1,0-5.8-0.9-5.6-6.4
		c1.2,4.7,4.4,5.3,8.9,5.2c15.7-0.3,31.4-0.1,47.2-0.1C919,232.8,921.6,232.5,923.5,234.7z"/>
	<path style="fill:#FFFFFF" d="M862.9,251.1c-0.1-1.2,0.4-1.5,1.5-1.1C863.9,250.4,863.4,250.8,862.9,251.1z"/>
</g>
</svg>
